<?xml version="1.0" encoding="utf-8"?>
<!-- Generator: Adobe Illustrator 18.1.1, SVG Export Plug-In . SVG Version: 6.00 Build 0)  -->
<!DOCTYPE svg PUBLIC "-//W3C//DTD SVG 1.1//EN" "http://www.w3.org/Graphics/SVG/1.1/DTD/svg11.dtd">
<svg version="1.1" id="Layer_1" xmlns="http://www.w3.org/2000/svg" xmlns:xlink="http://www.w3.org/1999/xlink" x="0px" y="0px"
	 width="20px" height="240px" viewBox="0 0 20 240" enable-background="new 0 0 20 240" xml:space="preserve">
<path id="White_2_" fill="#FFFFFF" d="M18,0H1C0.5,0,0,0.5,0,1V18c0,0.6,0.5,1,1,1h9.1v-7.4H7.7V8.8h2.5V6.7c0-2.5,1.5-3.8,3.7-3.8
	c1,0,1.9,0.1,2.2,0.1v2.6l-1.5,0c-1.2,0-1.4,0.6-1.4,1.4v1.8h2.8l-0.4,2.9h-2.5V19H18c0.6,0,1-0.5,1-1V1C19,0.5,18.5,0,18,0z"/>
<path fill="#FFFFFF" d="M18,31.7c-0.7,0.3-1.4,0.5-2.1,0.6c0.8-0.5,1.3-1.2,1.6-2c-0.7,0.4-1.5,0.7-2.3,0.9
	c-0.7-0.7-1.6-1.2-2.7-1.2c-2,0-3.7,1.7-3.7,3.7c0,0.3,0,0.6,0.1,0.8c-3.1-0.2-5.8-1.6-7.6-3.9c-0.3,0.5-0.5,1.2-0.5,1.9
	c0,1.3,0.7,2.4,1.6,3.1c-0.6,0-1.2-0.2-1.7-0.5c0,0,0,0,0,0c0,1.8,1.3,3.3,3,3.6c-0.3,0.1-0.6,0.1-1,0.1c-0.2,0-0.5,0-0.7-0.1
	c0.5,1.5,1.8,2.5,3.4,2.6c-1.3,1-2.9,1.6-4.6,1.6C0.6,43,0.3,43,0,43c1.6,1,3.6,1.7,5.7,1.7c6.8,0,10.5-5.6,10.5-10.5
	c0-0.2,0-0.3,0-0.5C16.9,33.1,17.5,32.5,18,31.7z"/>
<path fill="#FFFFFF" d="M16.8,68h-1.7c0.1,0.5,0.2,1,0.2,1.5c0,3.2-2.6,5.8-5.8,5.8c-3.2,0-5.8-2.6-5.8-5.8c0-0.5,0.1-1,0.2-1.5H2.2
	v8c0,0.4,0.3,0.7,0.7,0.7h13.2c0.4,0,0.7-0.3,0.7-0.7V68z M16.8,62.9c0-0.4-0.3-0.7-0.7-0.7h-2.2c-0.4,0-0.7,0.3-0.7,0.7v2.2
	c0,0.4,0.3,0.7,0.7,0.7h2.2c0.4,0,0.7-0.3,0.7-0.7V62.9z M9.5,65.8c-2,0-3.7,1.6-3.7,3.7c0,2,1.6,3.7,3.7,3.7s3.7-1.6,3.7-3.7
	C13.2,67.5,11.5,65.8,9.5,65.8 M16.8,79H2.2C1,79,0,78,0,76.8V62.2C0,61,1,60,2.2,60h14.6c1.2,0,2.2,1,2.2,2.2v14.6
	C19,78,18,79,16.8,79"/>
<path fill="#FFFFFF" d="M17.6,90H1.4C0.6,90,0,90.6,0,91.4v16.3c0,0.8,0.6,1.4,1.4,1.4h16.2c0.8,0,1.4-0.6,1.4-1.4V91.4
	C19,90.6,18.4,90,17.6,90z M5.6,106.2H2.8v-9.1h2.8V106.2z M4.2,95.9c-0.9,0-1.6-0.7-1.6-1.6c0-0.9,0.7-1.6,1.6-1.6
	c0.9,0,1.6,0.7,1.6,1.6C5.9,95.2,5.1,95.9,4.2,95.9z M16.2,106.2h-2.8v-4.4c0-1.1,0-2.4-1.5-2.4c-1.5,0-1.7,1.1-1.7,2.3v4.5H7.4
	v-9.1h2.7v1.2h0c0.4-0.7,1.3-1.5,2.7-1.5c2.9,0,3.4,1.9,3.4,4.3V106.2z"/>
<path fill="#FFFFFF" d="M6.2,131.3c0.3-0.5,0.5-0.9,0.8-1.4c1.8-3.1,3.5-6.2,5.3-9.4c0-0.1,0.1-0.2,0.1-0.2c0.2-0.3,0.4-0.4,0.7-0.4
	c0.9,0,1.8,0,2.7,0c0.4,0,0.6,0.3,0.4,0.7c-0.4,0.8-0.9,1.5-1.3,2.3c-1.5,2.7-3.1,5.4-4.6,8.2c0,0.1-0.1,0.1-0.1,0.2
	c0.5,0.9,1,1.8,1.5,2.8c0.8,1.4,1.5,2.8,2.3,4.1c0.2,0.4,0.2,0.8-0.5,0.8c-0.8,0-1.6,0-2.4,0c-0.4,0-0.7-0.2-0.9-0.5
	c-1.3-2.3-2.6-4.7-3.8-7C6.2,131.4,6.2,131.4,6.2,131.3z"/>
<path fill="#FFFFFF" d="M3,127.5c-0.3-0.6-0.7-1.1-1-1.7c-0.3-0.4-0.5-0.9-0.8-1.3c0-0.1-0.1-0.2-0.1-0.3c-0.1-0.2,0-0.4,0.3-0.5
	c0.1,0,0.2,0,0.3,0c0.8,0,1.7,0,2.5,0c0.4,0,0.6,0.1,0.8,0.5c0.6,1.1,1.3,2.2,1.9,3.4c-0.1,0.2-0.2,0.4-0.3,0.6
	c-0.9,1.6-1.8,3.1-2.6,4.7c0,0.1-0.1,0.1-0.1,0.2c-0.2,0.3-0.4,0.4-0.7,0.4c-0.9,0-1.8,0-2.6,0c-0.1,0-0.2,0-0.2,0
	C0.1,133.2,0,133,0,132.8c0-0.1,0.1-0.2,0.2-0.3c0.9-1.6,1.8-3.2,2.7-4.7C2.9,127.7,2.9,127.6,3,127.5z"/>
<path fill="#FFFFFF" d="M9.5,150c-5.2,0-9.5,4.3-9.5,9.5s4.3,9.5,9.5,9.5c5.2,0,9.5-4.3,9.5-9.5S14.7,150,9.5,150z M9.5,167.9
	c-0.9,0-1.7-0.1-2.5-0.4c0.3-0.6,0.9-1.5,1-2.2c0.1-0.4,0.5-2,0.5-2c0.3,0.5,1.1,1,1.9,1c2.5,0,4.4-2.3,4.4-5.3
	c0-2.8-2.3-4.9-5.2-4.9c-3.6,0-5.6,2.4-5.6,5.1c0,1.2,0.7,2.8,1.7,3.3c0.2,0.1,0.2,0,0.3-0.1c0-0.1,0.2-0.7,0.2-1
	c0-0.1,0-0.2-0.1-0.2c-0.3-0.4-0.6-1.2-0.6-1.9c0-1.9,1.4-3.7,3.8-3.7c2.1,0,3.5,1.4,3.5,3.4c0,2.3-1.2,3.9-2.7,3.9
	c-0.8,0-1.4-0.7-1.3-1.5c0.2-1,0.7-2.1,0.7-2.8c0-0.6-0.3-1.2-1.1-1.2c-0.8,0-1.5,0.9-1.5,2.1c0,0.7,0.3,1.3,0.3,1.3s-0.8,3.5-1,4.2
	c-0.2,0.7-0.1,1.8,0,2.4c-3.1-1.2-5.4-4.3-5.4-7.9c0-4.7,3.8-8.4,8.4-8.4s8.4,3.8,8.4,8.4S14.2,167.9,9.5,167.9z"/>
<path fill="#FFFFFF" d="M16.7,189.4c-0.5,0.1-1,0.2-1.4,0.2c-2.4,0-4.2-1.7-4.2-4.6c0-1.4,0.6-2.2,1.3-2.2c0.7,0,1.2,0.7,1.2,2
	c0,0.8-0.2,1.6-0.4,2.1c0,0,0.7,1.3,2.8,0.9c0.4-1,0.7-2.2,0.7-3.3c0-2.9-1.5-4.6-4.2-4.6c-2.8,0-4.4,2.2-4.4,5
	c0,2.8,1.3,5.2,3.5,6.3c-0.9,1.8-2.1,3.4-3.3,4.6c-2.2-2.6-4.2-6.2-5-13.1H0c1.5,11.5,5.9,15.1,7.1,15.8c0.7,0.4,1.2,0.4,1.8,0
	c1-0.5,3.8-3.4,5.4-6.8c0.7,0,1.5-0.1,2.3-0.3V189.4z"/>
<path fill="#FFFFFF" d="M19,224c0,0.1-0.1,0.1-0.1,0.2c-0.1,0.1-0.2,0.1-0.3,0.2c-0.4,0.2-0.8,0.3-1.2,0.4c-0.2,0-0.4,0.1-0.6,0.1
	c-0.2,0-0.3,0.1-0.4,0.3c-0.1,0.2-0.1,0.3-0.1,0.5c0,0.2-0.1,0.3-0.1,0.5c-0.1,0-0.2,0-0.3,0c-0.3,0-0.6-0.1-0.8-0.1
	c-0.5-0.1-0.9,0-1.4,0.1c-0.3,0.1-0.5,0.2-0.8,0.3c-0.3,0.2-0.5,0.3-0.8,0.5c-0.3,0.2-0.6,0.4-1,0.6c-0.5,0.2-1,0.3-1.5,0.3
	c-0.3,0-0.7,0-1-0.1c-0.4-0.1-0.8-0.3-1.1-0.5c-0.3-0.2-0.5-0.4-0.8-0.6c-0.2-0.2-0.5-0.3-0.7-0.4C5.5,226,5.1,226,4.6,226
	c-0.5,0-0.9,0-1.4,0.1c-0.1,0-0.1,0-0.2,0c-0.1,0-0.1,0-0.2-0.1c0-0.2-0.1-0.4-0.1-0.6c0-0.1-0.1-0.2-0.1-0.3
	c-0.1-0.2-0.2-0.3-0.4-0.3c-0.5-0.1-0.9-0.2-1.4-0.3c-0.2-0.1-0.4-0.1-0.6-0.3C0.1,224.2,0,224.2,0,224c0,0,0,0,0.1,0
	c1.1-0.2,2-0.7,2.7-1.5c0.6-0.6,1.1-1.3,1.5-2.2c0.1-0.2,0.1-0.3,0.1-0.5c0-0.3-0.1-0.6-0.3-0.8c-0.1-0.1-0.3-0.2-0.5-0.3
	c-0.2-0.1-0.5-0.2-0.7-0.3c-0.2-0.1-0.4-0.2-0.6-0.3c-0.1-0.1-0.2-0.1-0.2-0.2c-0.1-0.1-0.1-0.2,0-0.3c0.2-0.2,0.5-0.2,0.7-0.1
	c0.3,0.1,0.7,0.3,1.1,0.2c0.2,0,0.4-0.1,0.6-0.2c0.1-0.1,0.2-0.2,0.2-0.3c0-0.6-0.1-1.2-0.1-1.9c0-0.5,0-1,0-1.5
	c0.1-0.7,0.3-1.2,0.7-1.8c0.7-1.1,1.8-1.8,3.1-2.1c1-0.2,2-0.2,3,0.1c1.4,0.5,2.3,1.4,2.9,2.7c0.1,0.3,0.2,0.7,0.2,1
	c0.1,0.7,0,1.4,0,2.1c0,0.4,0,0.9-0.1,1.3c0,0.1,0,0.1,0.1,0.2c0.2,0.2,0.4,0.2,0.6,0.2c0.2,0,0.4,0,0.6-0.1
	c0.2-0.1,0.4-0.1,0.5-0.2c0.3-0.1,0.6,0,0.8,0.1c0.1,0.1,0.1,0.2,0,0.3c-0.1,0.1-0.2,0.2-0.3,0.2c-0.2,0.1-0.4,0.2-0.6,0.3
	c-0.2,0.1-0.5,0.2-0.7,0.3c-0.1,0.1-0.3,0.1-0.4,0.2c-0.4,0.3-0.5,0.6-0.4,1.1c0,0.2,0.1,0.3,0.2,0.5c0.5,1,1.1,1.8,2,2.5
	C17.4,223.5,18.1,223.9,19,224C19,224,19,224,19,224z"/>
</svg>
